<svg width="266" height="86" viewBox="0 0 266 86" fill="none" xmlns="http://www.w3.org/2000/svg">
<path d="M2 11C21.0965 5.34174 41.935 3.23619 61.7778 2.99996C79.8485 2.78484 102.058 1.24616 117.111 13.4444C127.291 21.6937 135.506 36.0442 136 49C136.89 72.3524 120.975 81.0532 98.5556 82.7777C94.1253 83.1185 86.1725 84.212 82.3333 81.1111C73.8802 74.2835 83.8824 63.8822 90.1111 60.5555C108.803 50.5725 133.612 49.4337 154.222 47.3333C171.179 45.6052 188.081 45 205.111 45C222.416 45 234.93 50.3225 248.667 60.8889C255.589 66.2134 258.14 73.1395 264 79" stroke="white" stroke-width="4" stroke-linecap="round"/>
</svg>
